<svg xmlns="http://www.w3.org/2000/svg" viewBox="0 0 560 300" width="560" height="300">
  <defs>
    <clipPath id="q3-tl"><path d="M 30 30 L 130 30 A 100 100 0 0 0 30 130 Z"/></clipPath>
    <clipPath id="q3-tr"><path d="M 130 30 L 230 30 L 230 130 A 100 100 0 0 0 130 30 Z"/></clipPath>
    <clipPath id="q3-bl"><path d="M 30 130 L 30 230 L 130 230 A 100 100 0 0 0 30 130 Z"/></clipPath>
  </defs>

  <text x="130" y="18" text-anchor="middle" font-size="13" font-weight="600" fill="#334155">(X)</text>

  <rect x="30" y="30" width="200" height="200" fill="#fff" stroke="#1e293b" stroke-width="2"/>
  <line x1="130" y1="30" x2="130" y2="230" stroke="#1e293b" stroke-width="2"/>
  <line x1="30" y1="130" x2="230" y2="130" stroke="#1e293b" stroke-width="2"/>

  <path d="M 30 30 L 130 30 A 100 100 0 0 0 30 130 Z" fill="#f1f5f9" stroke="#64748b" stroke-width="1"/>
  <g clip-path="url(#q3-tl)">
    <line x1="32" y1="40" x2="128" y2="40" stroke="#475569" stroke-width="1.2"/>
    <line x1="32" y1="52" x2="128" y2="52" stroke="#475569" stroke-width="1.2"/>
    <line x1="32" y1="64" x2="128" y2="64" stroke="#475569" stroke-width="1.2"/>
    <line x1="32" y1="76" x2="128" y2="76" stroke="#475569" stroke-width="1.2"/>
    <line x1="32" y1="88" x2="128" y2="88" stroke="#475569" stroke-width="1.2"/>
    <line x1="32" y1="100" x2="128" y2="100" stroke="#475569" stroke-width="1.2"/>
    <line x1="32" y1="112" x2="128" y2="112" stroke="#475569" stroke-width="1.2"/>
  </g>

  <path d="M 130 30 L 230 30 L 230 130 A 100 100 0 0 0 130 30 Z" fill="#f1f5f9" stroke="#64748b" stroke-width="1"/>
  <g clip-path="url(#q3-tr)">
    <line x1="145" y1="32" x2="145" y2="128" stroke="#475569" stroke-width="1.2"/>
    <line x1="157" y1="32" x2="157" y2="128" stroke="#475569" stroke-width="1.2"/>
    <line x1="169" y1="32" x2="169" y2="128" stroke="#475569" stroke-width="1.2"/>
    <line x1="181" y1="32" x2="181" y2="128" stroke="#475569" stroke-width="1.2"/>
    <line x1="193" y1="32" x2="193" y2="128" stroke="#475569" stroke-width="1.2"/>
    <line x1="205" y1="32" x2="205" y2="128" stroke="#475569" stroke-width="1.2"/>
    <line x1="217" y1="32" x2="217" y2="128" stroke="#475569" stroke-width="1.2"/>
  </g>

  <path d="M 30 130 L 30 230 L 130 230 A 100 100 0 0 0 30 130 Z" fill="#f1f5f9" stroke="#64748b" stroke-width="1"/>
  <g clip-path="url(#q3-bl)">
    <line x1="45" y1="132" x2="45" y2="228" stroke="#475569" stroke-width="1.2"/>
    <line x1="57" y1="132" x2="57" y2="228" stroke="#475569" stroke-width="1.2"/>
    <line x1="69" y1="132" x2="69" y2="228" stroke="#475569" stroke-width="1.2"/>
    <line x1="81" y1="132" x2="81" y2="228" stroke="#475569" stroke-width="1.2"/>
    <line x1="93" y1="132" x2="93" y2="228" stroke="#475569" stroke-width="1.2"/>
    <line x1="105" y1="132" x2="105" y2="228" stroke="#475569" stroke-width="1.2"/>
    <line x1="117" y1="132" x2="117" y2="228" stroke="#475569" stroke-width="1.2"/>
  </g>

  <text x="180" y="188" text-anchor="middle" font-size="40" font-weight="bold" fill="#dc2626">?</text>

  <text x="400" y="18" text-anchor="middle" font-size="12" fill="#64748b">Options (1) - (4)</text>

  <!-- (1) top-left quarter - horizontal lines (correct answer) -->
  <g transform="translate(288, 32)">
    <text x="2" y="10" font-size="11" font-weight="600">(1)</text>
    <rect x="0" y="14" width="54" height="54" fill="#fff" stroke="#64748b"/>
    <path d="M 0 14 L 54 14 A 54 54 0 0 1 0 68 Z" fill="#e2e8f0" stroke="#64748b"/>
    <line x1="6" y1="22" x2="48" y2="22" stroke="#475569" stroke-width="1"/>
    <line x1="6" y1="30" x2="48" y2="30" stroke="#475569" stroke-width="1"/>
    <line x1="6" y1="38" x2="48" y2="38" stroke="#475569" stroke-width="1"/>
    <line x1="6" y1="46" x2="48" y2="46" stroke="#475569" stroke-width="1"/>
    <line x1="6" y1="54" x2="48" y2="54" stroke="#475569" stroke-width="1"/>
  </g>

  <!-- (2) top-right quarter - vertical lines -->
  <g transform="translate(358, 32)">
    <text x="2" y="10" font-size="11" font-weight="600">(2)</text>
    <rect x="0" y="14" width="54" height="54" fill="#fff" stroke="#64748b"/>
    <path d="M 54 14 L 54 68 L 0 68 A 54 54 0 0 1 54 14 Z" fill="#e2e8f0" stroke="#64748b"/>
    <line x1="14" y1="20" x2="14" y2="62" stroke="#475569" stroke-width="1"/>
    <line x1="22" y1="20" x2="22" y2="62" stroke="#475569" stroke-width="1"/>
    <line x1="30" y1="20" x2="30" y2="62" stroke="#475569" stroke-width="1"/>
    <line x1="38" y1="20" x2="38" y2="62" stroke="#475569" stroke-width="1"/>
    <line x1="46" y1="20" x2="46" y2="62" stroke="#475569" stroke-width="1"/>
  </g>

  <!-- (3) bottom-left quarter - vertical lines -->
  <g transform="translate(428, 32)">
    <text x="2" y="10" font-size="11" font-weight="600">(3)</text>
    <rect x="0" y="14" width="54" height="54" fill="#fff" stroke="#64748b"/>
    <path d="M 0 68 L 54 68 L 54 14 A 54 54 0 0 1 0 68 Z" fill="#e2e8f0" stroke="#64748b"/>
    <line x1="14" y1="20" x2="14" y2="62" stroke="#475569" stroke-width="1"/>
    <line x1="22" y1="20" x2="22" y2="62" stroke="#475569" stroke-width="1"/>
    <line x1="30" y1="20" x2="30" y2="62" stroke="#475569" stroke-width="1"/>
    <line x1="38" y1="20" x2="38" y2="62" stroke="#475569" stroke-width="1"/>
    <line x1="46" y1="20" x2="46" y2="62" stroke="#475569" stroke-width="1"/>
  </g>

  <!-- (4) bottom-right quarter - horizontal lines -->
  <g transform="translate(498, 32)">
    <text x="2" y="10" font-size="11" font-weight="600">(4)</text>
    <rect x="0" y="14" width="54" height="54" fill="#fff" stroke="#64748b"/>
    <path d="M 54 68 L 0 68 L 0 14 A 54 54 0 0 1 54 68 Z" fill="#e2e8f0" stroke="#64748b"/>
    <line x1="6" y1="22" x2="48" y2="22" stroke="#475569" stroke-width="1"/>
    <line x1="6" y1="30" x2="48" y2="30" stroke="#475569" stroke-width="1"/>
    <line x1="6" y1="38" x2="48" y2="38" stroke="#475569" stroke-width="1"/>
    <line x1="6" y1="46" x2="48" y2="46" stroke="#475569" stroke-width="1"/>
    <line x1="6" y1="54" x2="48" y2="54" stroke="#475569" stroke-width="1"/>
  </g>
</svg>
