<svg xmlns="http://www.w3.org/2000/svg" viewBox="0 0 640 380" width="640" height="380">
  <text x="320" y="18" text-anchor="middle" font-size="12" font-weight="600">Sales of Books (thousand) - B1-B6 - 2000 (blue) vs 2001 (red)</text>
  <line x1="60" y1="300" x2="600" y2="300" stroke="#334155" stroke-width="1"/>
  <line x1="60" y1="50" x2="60" y2="300" stroke="#334155" stroke-width="1"/>
  <text x="25" y="175" font-size="10" transform="rotate(-90 25 175)">Sales (thousands)</text>
  <g font-size="9" fill="#64748b">
    <line x1="55" y1="300" x2="60" y2="300"/><text x="48" y="303" text-anchor="end">0</text>
    <line x1="55" y1="258" x2="60" y2="258"/><text x="48" y="261" text-anchor="end">20</text>
    <line x1="55" y1="216" x2="60" y2="216"/><text x="48" y="219" text-anchor="end">40</text>
    <line x1="55" y1="174" x2="60" y2="174"/><text x="48" y="177" text-anchor="end">60</text>
    <line x1="55" y1="132" x2="60" y2="132"/><text x="48" y="135" text-anchor="end">80</text>
    <line x1="55" y1="90" x2="60" y2="90"/><text x="48" y="93" text-anchor="end">100</text>
    <line x1="55" y1="48" x2="60" y2="48"/><text x="48" y="51" text-anchor="end">120</text>
  </g>
  <rect x="85" y="132" width="22" height="168" fill="#3b82f6"/><text x="96" y="125" text-anchor="middle" font-size="9">80</text>
  <rect x="109" y="107" width="22" height="193" fill="#ef4444"/><text x="120" y="100" text-anchor="middle" font-size="9">105</text>
  <text x="107" y="315" text-anchor="middle" font-size="10">B1</text>
  <rect x="165" y="138" width="22" height="162" fill="#3b82f6"/><text x="176" y="131" text-anchor="middle" font-size="9">75</text>
  <rect x="189" y="148" width="22" height="152" fill="#ef4444"/><text x="200" y="141" text-anchor="middle" font-size="9">65</text>
  <text x="187" y="315" text-anchor="middle" font-size="10">B2</text>
  <rect x="245" y="107" width="22" height="193" fill="#3b82f6"/><text x="256" y="100" text-anchor="middle" font-size="9">95</text>
  <rect x="269" y="102" width="22" height="198" fill="#ef4444"/><text x="280" y="95" text-anchor="middle" font-size="9">110</text>
  <text x="267" y="315" text-anchor="middle" font-size="10">B3</text>
  <rect x="325" y="132" width="22" height="168" fill="#3b82f6"/><text x="336" y="125" text-anchor="middle" font-size="9">85</text>
  <rect x="349" y="122" width="22" height="178" fill="#ef4444"/><text x="360" y="115" text-anchor="middle" font-size="9">95</text>
  <text x="347" y="315" text-anchor="middle" font-size="10">B4</text>
  <rect x="405" y="138" width="22" height="162" fill="#3b82f6"/><text x="416" y="131" text-anchor="middle" font-size="9">75</text>
  <rect x="429" y="122" width="22" height="178" fill="#ef4444"/><text x="440" y="115" text-anchor="middle" font-size="9">95</text>
  <text x="427" y="315" text-anchor="middle" font-size="10">B5</text>
  <rect x="485" y="148" width="22" height="152" fill="#3b82f6"/><text x="496" y="141" text-anchor="middle" font-size="9">70</text>
  <rect x="509" y="132" width="22" height="168" fill="#ef4444"/><text x="520" y="125" text-anchor="middle" font-size="9">80</text>
  <text x="507" y="315" text-anchor="middle" font-size="10">B6</text>
  <rect x="80" y="330" width="14" height="10" fill="#3b82f6"/><text x="98" y="338" font-size="10">2000</text>
  <rect x="160" y="330" width="14" height="10" fill="#ef4444"/><text x="178" y="338" font-size="10">2001</text>
  <text x="320" y="355" text-anchor="middle" font-size="11" fill="#475569">Ratio B2 total (75+65=140) : B4 total (85+95=180)</text>
</svg>
