<svg xmlns="http://www.w3.org/2000/svg" viewBox="0 0 520 320" width="520" height="320">
  <text x="260" y="22" text-anchor="middle" font-size="13" fill="#334155">(X) - find the missing quadrant</text>
  <rect x="40" y="40" width="200" height="200" fill="#fff" stroke="#1e293b" stroke-width="2"/>
  <line x1="140" y1="40" x2="140" y2="240" stroke="#1e293b" stroke-width="2"/>
  <line x1="40" y1="140" x2="240" y2="140" stroke="#1e293b" stroke-width="2"/>
  <path d="M 140 140 A 100 100 0 0 1 40 140 Z" fill="#e2e8f0" stroke="#64748b"/>
  <line x1="55" y1="155" x2="125" y2="155" stroke="#94a3b8" stroke-width="1"/>
  <line x1="55" y1="170" x2="125" y2="170" stroke="#94a3b8" stroke-width="1"/>
  <line x1="55" y1="185" x2="125" y2="185" stroke="#94a3b8" stroke-width="1"/>
  <path d="M 140 140 A 100 100 0 0 1 140 40 Z" fill="#e2e8f0" stroke="#64748b"/>
  <line x1="155" y1="55" x2="155" y2="125" stroke="#94a3b8" stroke-width="1"/>
  <line x1="170" y1="55" x2="170" y2="125" stroke="#94a3b8" stroke-width="1"/>
  <line x1="185" y1="55" x2="185" y2="125" stroke="#94a3b8" stroke-width="1"/>
  <path d="M 140 140 A 100 100 0 0 1 240 140 Z" fill="#e2e8f0" stroke="#64748b"/>
  <line x1="155" y1="155" x2="155" y2="225" stroke="#94a3b8" stroke-width="1"/>
  <line x1="170" y1="155" x2="170" y2="225" stroke="#94a3b8" stroke-width="1"/>
  <text x="190" y="195" font-size="36" font-weight="bold" fill="#dc2626">?</text>
  <text x="260" y="270" text-anchor="middle" font-size="12" fill="#64748b">Options (1)-(4): pick bottom-right quadrant</text>
  <g transform="translate(280,40)">
    <text x="0" y="0" font-size="11">(1)</text>
    <rect x="0" y="8" width="50" height="50" fill="#fff" stroke="#64748b"/>
    <path d="M 50 58 A 50 50 0 0 1 0 58 Z" fill="#cbd5e1"/>
    <text x="60" y="0" font-size="11">(2)</text>
    <rect x="60" y="8" width="50" height="50" fill="#fff" stroke="#64748b"/>
    <path d="M 110 58 A 50 50 0 0 1 110 8 Z" fill="#cbd5e1"/>
    <text x="120" y="0" font-size="11">(3)</text>
    <rect x="120" y="8" width="50" height="50" fill="#fff" stroke="#64748b"/>
    <path d="M 170 58 A 50 50 0 0 1 120 58 Z" fill="#cbd5e1"/>
    <text x="180" y="0" font-size="11">(4)</text>
    <rect x="180" y="8" width="50" height="50" fill="#fff" stroke="#64748b"/>
    <path d="M 180 8 A 50 50 0 0 1 230 8 Z" fill="#cbd5e1"/>
  </g>
</svg>
