<svg xmlns="http://www.w3.org/2000/svg" viewBox="0 0 900 520" width="900" height="520">
  <rect x="0" y="0" width="900" height="520" fill="#ffffff"/>
  <text x="450" y="36" text-anchor="middle" font-size="24" font-weight="700" fill="#0f172a">
    Sales of Books (in thousand numbers) from Six Branches - D1, D2, D3, D4, D5 and D6 in 2000 and 2001.
  </text>

  <line x1="88" y1="450" x2="850" y2="450" stroke="#1e293b" stroke-width="2"/>
  <line x1="88" y1="84" x2="88" y2="450" stroke="#1e293b" stroke-width="2"/>

  <text x="30" y="280" transform="rotate(-90 30 280)" font-size="24" font-weight="600" fill="#111827">
    Sales (in thousand numbers)
  </text>

  <g font-size="14" fill="#111827">
    <line x1="83" y1="450" x2="88" y2="450" stroke="#1e293b"/><text x="74" y="455" text-anchor="end">0</text>
    <line x1="83" y1="390" x2="88" y2="390" stroke="#1e293b"/><text x="74" y="395" text-anchor="end">20</text>
    <line x1="83" y1="330" x2="88" y2="330" stroke="#1e293b"/><text x="74" y="335" text-anchor="end">40</text>
    <line x1="83" y1="270" x2="88" y2="270" stroke="#1e293b"/><text x="74" y="275" text-anchor="end">60</text>
    <line x1="83" y1="210" x2="88" y2="210" stroke="#1e293b"/><text x="74" y="215" text-anchor="end">80</text>
    <line x1="83" y1="150" x2="88" y2="150" stroke="#1e293b"/><text x="74" y="155" text-anchor="end">100</text>
    <line x1="83" y1="90" x2="88" y2="90" stroke="#1e293b"/><text x="74" y="95" text-anchor="end">120</text>
  </g>

  <g font-size="16" font-weight="700" fill="#111827">
    <rect x="120" y="210" width="38" height="240" fill="#0f66b1"/><text x="139" y="198" text-anchor="middle">80</text>
    <rect x="164" y="135" width="38" height="315" fill="#e0101a"/><text x="183" y="123" text-anchor="middle">105</text>
    <text x="161" y="476" text-anchor="middle">D1</text>

    <rect x="248" y="225" width="38" height="225" fill="#0f66b1"/><text x="267" y="213" text-anchor="middle">75</text>
    <rect x="292" y="255" width="38" height="195" fill="#e0101a"/><text x="311" y="243" text-anchor="middle">65</text>
    <text x="289" y="476" text-anchor="middle">D2</text>

    <rect x="376" y="165" width="38" height="285" fill="#0f66b1"/><text x="395" y="153" text-anchor="middle">95</text>
    <rect x="420" y="120" width="38" height="330" fill="#e0101a"/><text x="439" y="108" text-anchor="middle">110</text>
    <text x="417" y="476" text-anchor="middle">D3</text>

    <rect x="504" y="195" width="38" height="255" fill="#0f66b1"/><text x="523" y="183" text-anchor="middle">85</text>
    <rect x="548" y="165" width="38" height="285" fill="#e0101a"/><text x="567" y="153" text-anchor="middle">95</text>
    <text x="545" y="476" text-anchor="middle">D4</text>

    <rect x="632" y="225" width="38" height="225" fill="#0f66b1"/><text x="651" y="213" text-anchor="middle">75</text>
    <rect x="676" y="165" width="38" height="285" fill="#e0101a"/><text x="695" y="153" text-anchor="middle">95</text>
    <text x="673" y="476" text-anchor="middle">D5</text>

    <rect x="760" y="240" width="38" height="210" fill="#0f66b1"/><text x="779" y="228" text-anchor="middle">70</text>
    <rect x="804" y="210" width="38" height="240" fill="#e0101a"/><text x="823" y="198" text-anchor="middle">80</text>
    <text x="801" y="476" text-anchor="middle">D6</text>
  </g>

  <rect x="720" y="498" width="16" height="12" fill="#0f66b1"/>
  <text x="744" y="509" font-size="18" font-weight="700" fill="#111827">2000</text>
  <rect x="804" y="498" width="16" height="12" fill="#e0101a"/>
  <text x="828" y="509" font-size="18" font-weight="700" fill="#111827">2001</text>
</svg>
